<svg width="16" height="16" viewBox="0 0 16 16" fill="none" xmlns="http://www.w3.org/2000/svg">
<path d="M6.99761 9.73274C6.90193 9.73291 6.80715 9.71417 6.71873 9.67757C6.63032 9.64097 6.55002 9.58726 6.48245 9.5195C5.84298 8.87827 5.48389 8.00964 5.48389 7.10405C5.48389 6.19846 5.84298 5.32982 6.48245 4.68859L9.17027 2.00077C9.81535 1.35569 10.6737 1 11.5857 1C12.4978 1 13.3561 1.35569 14.0012 2.00077C14.6406 2.642 14.9997 3.51064 14.9997 4.41622C14.9997 5.32181 14.6406 6.19045 14.0012 6.83168L12.7728 8.06002C12.6347 8.18846 12.4522 8.25833 12.2636 8.25491C12.075 8.25149 11.8951 8.17505 11.7617 8.04169C11.6284 7.90832 11.5519 7.72841 11.5485 7.53983C11.5451 7.35125 11.615 7.1687 11.7434 7.03058L12.9717 5.80225C13.245 5.52776 13.4309 5.17855 13.506 4.79861C13.5811 4.41867 13.5421 4.025 13.3939 3.66718C13.2457 3.30936 12.9949 3.00341 12.6732 2.78786C12.3514 2.57231 11.973 2.45681 11.5857 2.45591C11.0625 2.45591 10.5697 2.66018 10.1997 3.0302L7.51188 5.71803C7.14477 6.08588 6.93859 6.58435 6.93859 7.10405C6.93859 7.62375 7.14477 8.12222 7.51188 8.49007C7.61349 8.59198 7.68263 8.72171 7.71057 8.86289C7.73852 9.00406 7.72402 9.15035 7.66891 9.28329C7.6138 9.41623 7.52054 9.52986 7.40091 9.60986C7.28128 9.68985 7.14063 9.73261 6.99672 9.73274H6.99761Z" fill="#1C1D1E"/>
<path d="M4.41841 14.9999C3.96963 15.001 3.52508 14.9132 3.11047 14.7414C2.69587 14.5696 2.31943 14.3173 2.00295 13.9992C1.36349 13.3579 1.00439 12.4893 1.00439 11.5837C1.00439 10.6781 1.36349 9.80947 2.00295 9.16824L3.23129 7.9399C3.36941 7.81146 3.55196 7.74159 3.74054 7.74501C3.92912 7.74843 4.10903 7.82486 4.24239 7.95823C4.37576 8.0916 4.4522 8.27151 4.45562 8.46009C4.45904 8.64867 4.38917 8.83122 4.26073 8.96934L3.03239 10.1977C2.75916 10.4722 2.57327 10.8214 2.49815 11.2013C2.42302 11.5812 2.46202 11.9749 2.61022 12.3327C2.75843 12.6906 3.00921 12.9965 3.33098 13.2121C3.65275 13.4276 4.03112 13.5431 4.41841 13.544C4.94254 13.544 5.43441 13.3397 5.80443 12.9697L8.49225 10.2819C8.85937 9.91404 9.06554 9.41557 9.06554 8.89587C9.06554 8.37617 8.85937 7.8777 8.49225 7.50985C8.36381 7.37173 8.29394 7.18918 8.29736 7.0006C8.30078 6.81202 8.37722 6.63211 8.51059 6.49875C8.64396 6.36538 8.82386 6.28894 9.01244 6.28552C9.20102 6.2821 9.38358 6.35197 9.52169 6.48041C10.1612 7.12165 10.5203 7.99028 10.5203 8.89587C10.5203 9.80146 10.1612 10.6701 9.52169 11.3113L6.83387 13.9992C6.51739 14.3173 6.14096 14.5696 5.72635 14.7414C5.31174 14.9132 4.86719 15.001 4.41841 14.9999Z" fill="#1C1D1E"/>
</svg>
