<svg width="16" height="16" viewBox="0 0 16 16" fill="none" xmlns="http://www.w3.org/2000/svg">
<path d="M1.09589 14.5856V12.1404H1.71918L2.63014 13.5068H5.0274V12.7158L4.02055 12.3382C3.03767 11.9486 2.28653 11.3463 1.76712 10.5312C1.25571 9.71019 0.999999 8.66439 1 7.39384C0.999999 5.88357 1.64726 4.60703 2.94178 3.56421C4.2363 2.52142 5.92237 2.00001 8 2C10.0776 2.00001 11.7637 2.52142 13.0582 3.56421C14.3527 4.60703 15 5.88357 15 7.39384C15 8.66439 14.7403 9.71019 14.2209 10.5312C13.7095 11.3463 12.9623 11.9486 11.9795 12.3382L10.9726 12.7158V13.5068H13.3699L14.2808 12.1404H14.9041V14.5856H9.05479V12.5C10.3653 12.0685 11.3002 11.3733 11.8596 10.4144C12.4189 9.45548 12.6986 8.44864 12.6986 7.39384C12.6986 6.24316 12.3151 5.21234 11.5479 4.30137C10.7808 3.39042 9.59816 2.93494 8 2.93493C6.40182 2.93494 5.21917 3.39042 4.45205 4.30137C3.68493 5.21234 3.30137 6.24316 3.30137 7.39384C3.30137 8.44864 3.58105 9.45548 4.14041 10.4144C4.69977 11.3733 5.6347 12.0685 6.94521 12.5V14.5856H1.09589Z" fill="#1C1D1E"/>
</svg>
