<svg width="16" height="16" viewBox="0 0 16 16" fill="none" xmlns="http://www.w3.org/2000/svg">
<path d="M15 8.125V9H11.794C12.1702 9.52675 12.375 10.1305 12.375 10.75C12.375 11.7186 11.8736 12.6505 10.9995 13.3059C10.1884 13.9149 9.12263 14.25 8 14.25C6.87738 14.25 5.81163 13.9149 5.0005 13.3059C4.12637 12.6505 3.625 11.7186 3.625 10.75H5.375C5.375 11.6985 6.57725 12.5 8 12.5C9.42275 12.5 10.625 11.6985 10.625 10.75C10.625 9.8015 9.42275 9 8 9H1V8.125H5.095C5.06299 8.10266 5.03148 8.07962 5.0005 8.05587C4.12637 7.4005 3.625 6.46863 3.625 5.5C3.625 4.53137 4.12637 3.5995 5.0005 2.94412C5.81163 2.33513 6.87738 2 8 2C9.12263 2 10.1884 2.33513 10.9995 2.94412C11.8736 3.5995 12.375 4.53137 12.375 5.5H10.625C10.625 4.5515 9.42275 3.75 8 3.75C6.57725 3.75 5.375 4.5515 5.375 5.5C5.375 6.4485 6.57725 7.25 8 7.25C9.07975 7.25 10.1061 7.55975 10.905 8.125H15Z" fill="#1C1D1E"/>
</svg>
