<svg width="430" height="90" viewBox="0 0 430 90" fill="none" xmlns="http://www.w3.org/2000/svg">
<path d="M92.646 89.8597H93.2431L123.893 13.5337C126.878 6.16976 129.665 2.58732 132.351 0.995124V0.199022H113.942V0.995124C117.823 3.08488 118.718 8.8566 116.031 15.4244L97.2236 62.4938L71.6489 0H71.0518L44.1835 62.3942L24.8781 13.3347C22.5893 7.46343 23.2859 3.08488 26.8683 0.995124V0.199022H0V0.995124C2.88586 2.48781 4.97562 5.57269 7.56294 11.9415L39.2079 89.9592H39.8049L66.4743 26.7688L92.646 89.8597ZM291.273 46.0742V21.2956H317.146C328.988 21.2956 333.466 23.1864 337.745 29.1571L338.541 28.8586L337.048 15.1259H272.266L272.166 15.723C276.047 18.1113 277.142 21.5942 277.142 26.5698V75.6294C277.142 80.7045 276.047 84.0879 272.166 86.4762L272.266 87.2723H340.432L342.92 72.5445L342.323 72.246C337.944 78.1172 332.769 81.1026 321.027 81.1026H291.372V51.8459H311.076C319.534 51.8459 323.813 53.2391 326.003 56.8216H326.898V41.0986L326.003 40.9991C323.714 44.5815 319.534 45.9747 311.076 45.9747H291.273V46.0742ZM378.047 86.5757L378.147 87.3718H403.025V86.5757C398.945 84.1874 397.651 80.5055 397.651 74.5347V57.6176L419.544 26.3708C423.525 20.5991 426.908 17.1161 429.794 15.922V15.3249H410.389V15.922C413.872 17.9122 414.37 22.7883 410.688 28.162L394.666 51.2489L376.953 25.1766C374.167 21.1961 374.664 17.6137 377.948 15.8225V15.2254H350.682V15.8225C353.965 17.2156 355.956 19.0069 359.439 24.082L383.62 58.6128V74.5347C383.521 80.5055 382.128 84.1874 378.047 86.5757ZM257.837 87.3718L261.319 72.1465L260.523 71.8479C256.244 78.4157 249.776 81.2021 240.223 81.2021H212.061V27.8635C212.061 21.7932 213.554 18.3103 217.833 15.8225V15.2254H193.054L192.954 15.8225C196.835 18.2108 197.93 21.6937 197.93 26.6693V75.7289C197.93 80.804 196.835 84.1874 192.954 86.5757L193.054 87.3718H257.837ZM148.074 75.1318C148.074 80.7045 146.781 84.3865 142.8 86.5757V87.3718H167.479V86.5757C163.499 84.3865 162.205 80.7045 162.205 75.1318V27.2664C162.205 21.7932 163.399 18.2108 167.479 15.8225V15.2254H142.9V15.8225C146.88 18.2108 148.174 21.7932 148.174 27.2664V75.1318H148.074Z" fill="#1C1D1E"/>
</svg>
