<svg width="1184" height="198" viewBox="0 0 1184 198" fill="none" xmlns="http://www.w3.org/2000/svg">
<path d="M6.13764 73.9136C3.69256 73.9136 1.64668 73.6018 0 72.978V65.4557C2.09578 65.9796 3.91711 66.2416 5.46399 66.2416C10.3541 66.2416 12.7992 63.1478 12.7992 56.9603V3.92959H21.7811V56.6609C21.7811 62.2496 20.4463 66.516 17.7767 69.4601C15.132 72.4291 11.2523 73.9136 6.13764 73.9136Z" fill="white"/>
<path d="M71.743 37.8737C71.743 44.6351 70.009 49.912 66.541 53.7043C63.073 57.4967 58.2452 59.3929 52.0576 59.3929C48.1904 59.3929 44.7723 58.5196 41.8033 56.7732C38.8343 55.0267 36.5514 52.5192 34.9546 49.2508C33.3578 45.9824 32.5594 42.19 32.5594 37.8737C32.5594 31.1622 34.281 25.9228 37.724 22.1554C41.1671 18.388 46.0198 16.5043 52.2822 16.5043C58.2701 16.5043 63.0106 18.4379 66.5036 22.3051C69.9965 26.1473 71.743 31.3369 71.743 37.8737ZM41.6162 37.8737C41.6162 47.4295 45.1466 52.2074 52.2074 52.2074C59.1933 52.2074 62.6862 47.4295 62.6862 37.8737C62.6862 28.4178 59.1683 23.6898 52.1325 23.6898C48.4399 23.6898 45.7578 24.9123 44.0862 27.3574C42.4395 29.8025 41.6162 33.3079 41.6162 37.8737Z" fill="white"/>
<path d="M111.076 58.6444L109.841 53.2178H109.392C108.17 55.1389 106.423 56.6484 104.153 57.7462C101.907 58.844 99.3374 59.3929 96.4433 59.3929C91.4284 59.3929 87.6859 58.1454 85.2159 55.6504C82.7458 53.1554 81.5108 49.3756 81.5108 44.3108V17.2528H90.3805V42.7763C90.3805 45.945 91.0292 48.3277 92.3265 49.9245C93.6239 51.4963 95.6573 52.2822 98.4268 52.2822C102.119 52.2822 104.826 51.1844 106.548 48.9888C108.294 46.7683 109.168 43.0633 109.168 37.8737V17.2528H118V58.6444H111.076Z" fill="white"/>
<path d="M151.532 16.5043C153.304 16.5043 154.763 16.629 155.911 16.8785L155.05 25.0745C153.803 24.7751 152.505 24.6254 151.158 24.6254C147.64 24.6254 144.783 25.7731 142.588 28.0685C140.417 30.3638 139.332 33.3453 139.332 37.013V58.6444H130.537V17.2528H137.423L138.583 24.5506H139.032C140.405 22.0805 142.189 20.122 144.384 18.6749C146.605 17.2278 148.987 16.5043 151.532 16.5043Z" fill="white"/>
<path d="M200.035 58.6444H191.202V33.1956C191.202 30.0021 190.554 27.6194 189.256 26.0475C187.984 24.4757 185.95 23.6898 183.156 23.6898C179.439 23.6898 176.719 24.7876 174.998 26.9832C173.276 29.1787 172.415 32.8588 172.415 38.0234V58.6444H163.62V17.2528H170.507L171.742 22.6793H172.191C173.438 20.7083 175.21 19.1864 177.505 18.1135C179.8 17.0407 182.345 16.5043 185.14 16.5043C195.07 16.5043 200.035 21.5566 200.035 31.6612V58.6444Z" fill="white"/>
<path d="M238.17 58.6444L236.411 52.881H236.112C234.116 55.4009 232.108 57.1225 230.087 58.0456C228.066 58.9438 225.471 59.3929 222.302 59.3929C218.235 59.3929 215.054 58.2951 212.759 56.0995C210.489 53.9039 209.353 50.7977 209.353 46.7808C209.353 42.5144 210.938 39.2959 214.106 37.1252C217.275 34.9546 222.103 33.7695 228.59 33.5699L235.738 33.3453V31.1373C235.738 28.4926 235.114 26.5216 233.866 25.2242C232.644 23.9019 230.735 23.2407 228.141 23.2407C226.02 23.2407 223.986 23.5526 222.04 24.1763C220.094 24.8001 218.223 25.5361 216.427 26.3844L213.582 20.097C215.828 18.9244 218.285 18.0387 220.955 17.4399C223.625 16.8161 226.145 16.5043 228.515 16.5043C233.779 16.5043 237.746 17.6519 240.416 19.9473C243.11 22.2427 244.458 25.8479 244.458 30.763V58.6444H238.17ZM225.072 52.6564C228.265 52.6564 230.823 51.7707 232.744 49.9993C234.69 48.2029 235.663 45.6955 235.663 42.477V38.8842L230.349 39.1087C226.207 39.2584 223.188 39.957 221.292 41.2045C219.421 42.427 218.485 44.3108 218.485 46.8556C218.485 48.7019 219.034 50.1365 220.132 51.1595C221.229 52.1575 222.876 52.6564 225.072 52.6564Z" fill="white"/>
<path d="M265.528 58.6444H256.733V0.411671H265.528V58.6444Z" fill="white"/>
<path d="M334.763 37.8737C334.763 44.6351 333.029 49.912 329.561 53.7043C326.093 57.4967 321.265 59.3929 315.078 59.3929C311.211 59.3929 307.793 58.5196 304.824 56.7732C301.855 55.0267 299.572 52.5192 297.975 49.2508C296.378 45.9824 295.58 42.19 295.58 37.8737C295.58 31.1622 297.301 25.9228 300.744 22.1554C304.187 18.388 309.04 16.5043 315.302 16.5043C321.29 16.5043 326.031 18.4379 329.524 22.3051C333.017 26.1473 334.763 31.3369 334.763 37.8737ZM304.636 37.8737C304.636 47.4295 308.167 52.2074 315.228 52.2074C322.214 52.2074 325.707 47.4295 325.707 37.8737C325.707 28.4178 322.189 23.6898 315.153 23.6898C311.46 23.6898 308.778 24.9123 307.106 27.3574C305.46 29.8025 304.636 33.3079 304.636 37.8737Z" fill="white"/>
<path d="M365.676 23.9143H355.571V58.6444H346.739V23.9143H339.928V19.7976L346.739 17.1031V14.4085C346.739 9.51833 347.887 5.90062 350.182 3.55534C352.478 1.18511 355.983 7.15494e-08 360.699 7.15494e-08C363.792 7.15494e-08 366.836 0.51147 369.83 1.53441L367.51 8.19599C365.339 7.4974 363.268 7.1481 361.297 7.1481C359.301 7.1481 357.842 7.77185 356.919 9.01933C356.02 10.2419 355.571 12.0882 355.571 14.5582V17.2528H365.676V23.9143Z" fill="white"/>
<path d="M47.0637 195.696H30.2502V107.267H0V92.8454H77.3139V107.267H47.0637V195.696Z" fill="white"/>
<path d="M125.362 197.103C113.262 197.103 103.789 193.586 96.9413 186.551C90.1409 179.469 86.7407 169.737 86.7407 157.356C86.7407 144.646 89.9064 134.656 96.2378 127.387C102.569 120.117 111.269 116.483 122.337 116.483C132.608 116.483 140.722 119.602 146.678 125.839C152.634 132.077 155.613 140.659 155.613 151.587V160.521H103.765C104 168.072 106.04 173.888 109.886 177.968C113.731 182.001 119.148 184.018 126.136 184.018C130.732 184.018 135 183.596 138.94 182.752C142.926 181.861 147.194 180.407 151.743 178.39V191.827C147.71 193.75 143.63 195.11 139.503 195.907C135.375 196.704 130.662 197.103 125.362 197.103ZM122.337 129.005C117.085 129.005 112.864 130.67 109.675 134C106.532 137.33 104.656 142.184 104.047 148.562H139.362C139.268 142.137 137.72 137.283 134.719 134C131.717 130.67 127.59 129.005 122.337 129.005Z" fill="white"/>
<path d="M226.665 173.536C226.665 181.134 223.898 186.973 218.364 191.053C212.83 195.086 204.904 197.103 194.586 197.103C184.221 197.103 175.897 195.532 169.612 192.39V178.109C178.757 182.33 187.27 184.44 195.149 184.44C205.326 184.44 210.415 181.368 210.415 175.224C210.415 173.255 209.852 171.613 208.726 170.3C207.601 168.987 205.748 167.627 203.169 166.22C200.589 164.813 197.001 163.218 192.405 161.436C183.447 157.965 177.374 154.495 174.185 151.024C171.043 147.554 169.471 143.051 169.471 137.517C169.471 130.857 172.145 125.699 177.491 122.04C182.885 118.335 190.201 116.483 199.44 116.483C208.586 116.483 217.239 118.335 225.399 122.04L220.053 134.492C211.658 131.022 204.599 129.286 198.877 129.286C190.154 129.286 185.792 131.772 185.792 136.743C185.792 139.182 186.918 141.246 189.169 142.934C191.467 144.622 196.439 146.944 204.083 149.899C210.508 152.384 215.175 154.659 218.083 156.723C220.991 158.786 223.148 161.178 224.555 163.898C225.962 166.571 226.665 169.784 226.665 173.536Z" fill="white"/>
<path d="M273.588 183.737C277.622 183.737 281.655 183.104 285.688 181.837V194.289C283.859 195.086 281.491 195.743 278.583 196.259C275.722 196.822 272.744 197.103 269.649 197.103C253.984 197.103 246.152 188.849 246.152 172.34V130.412H235.529V123.096L246.926 117.046L252.554 100.584H262.755V117.89H284.915V130.412H262.755V172.059C262.755 176.045 263.739 179 265.709 180.923C267.726 182.799 270.352 183.737 273.588 183.737Z" fill="white"/>
<path d="M357.304 140.683H368.982C376.814 140.683 382.489 139.229 386.006 136.321C389.524 133.413 391.283 129.099 391.283 123.377C391.283 117.561 389.383 113.387 385.584 110.855C381.786 108.322 376.064 107.056 368.419 107.056H357.304V140.683ZM357.304 154.612V195.696H340.49V92.8454H369.545C382.817 92.8454 392.643 95.3311 399.021 100.302C405.399 105.274 408.589 112.778 408.589 122.814C408.589 135.618 401.929 144.74 388.609 150.18L417.664 195.696H398.529L373.906 154.612H357.304Z" fill="white"/>
<path d="M464.868 197.103C452.768 197.103 443.294 193.586 436.447 186.551C429.646 179.469 426.246 169.737 426.246 157.356C426.246 144.646 429.412 134.656 435.743 127.387C442.075 120.117 450.775 116.483 461.843 116.483C472.114 116.483 480.228 119.602 486.184 125.839C492.14 132.077 495.118 140.659 495.118 151.587V160.521H443.271C443.505 168.072 445.545 173.888 449.391 177.968C453.237 182.001 458.654 184.018 465.642 184.018C470.238 184.018 474.506 183.596 478.445 182.752C482.432 181.861 486.7 180.407 491.249 178.39V191.827C487.216 193.75 483.135 195.11 479.008 195.907C474.881 196.704 470.168 197.103 464.868 197.103ZM461.843 129.005C456.59 129.005 452.369 130.67 449.18 134C446.038 137.33 444.162 142.184 443.552 148.562H478.867C478.774 142.137 477.226 137.283 474.224 134C471.223 130.67 467.096 129.005 461.843 129.005Z" fill="white"/>
<path d="M566.171 173.536C566.171 181.134 563.404 186.973 557.87 191.053C552.336 195.086 544.41 197.103 534.092 197.103C523.727 197.103 515.402 195.532 509.118 192.39V178.109C518.263 182.33 526.775 184.44 534.654 184.44C544.832 184.44 549.92 181.368 549.92 175.224C549.92 173.255 549.357 171.613 548.232 170.3C547.106 168.987 545.254 167.627 542.674 166.22C540.095 164.813 536.507 163.218 531.911 161.436C522.953 157.965 516.88 154.495 513.69 151.024C510.548 147.554 508.977 143.051 508.977 137.517C508.977 130.857 511.65 125.699 516.997 122.04C522.39 118.335 529.707 116.483 538.946 116.483C548.091 116.483 556.744 118.335 564.905 122.04L559.558 134.492C551.163 131.022 544.105 129.286 538.383 129.286C529.66 129.286 525.298 131.772 525.298 136.743C525.298 139.182 526.424 141.246 528.675 142.934C530.973 144.622 535.944 146.944 543.589 149.899C550.014 152.384 554.681 154.659 557.588 156.723C560.496 158.786 562.653 161.178 564.06 163.898C565.467 166.571 566.171 169.784 566.171 173.536Z" fill="white"/>
<path d="M618.089 197.103C605.989 197.103 596.515 193.586 589.668 186.551C582.867 179.469 579.467 169.737 579.467 157.356C579.467 144.646 582.633 134.656 588.964 127.387C595.296 120.117 603.995 116.483 615.064 116.483C625.335 116.483 633.448 119.602 639.405 125.839C645.361 132.077 648.339 140.659 648.339 151.587V160.521H596.491C596.726 168.072 598.766 173.888 602.612 177.968C606.458 182.001 611.875 184.018 618.863 184.018C623.459 184.018 627.727 183.596 631.666 182.752C635.653 181.861 639.92 180.407 644.47 178.39V191.827C640.436 193.75 636.356 195.11 632.229 195.907C628.102 196.704 623.388 197.103 618.089 197.103ZM615.064 129.005C609.811 129.005 605.59 130.67 602.401 134C599.259 137.33 597.383 142.184 596.773 148.562H632.088C631.994 142.137 630.447 137.283 627.445 134C624.444 130.67 620.316 129.005 615.064 129.005Z" fill="white"/>
<path d="M715.804 195.696L712.497 184.862H711.935C708.183 189.599 704.407 192.835 700.608 194.57C696.81 196.259 691.932 197.103 685.976 197.103C678.331 197.103 672.351 195.039 668.037 190.912C663.769 186.785 661.635 180.946 661.635 173.395C661.635 165.376 664.613 159.325 670.569 155.245C676.525 151.165 685.601 148.937 697.794 148.562L711.231 148.14V143.989C711.231 139.018 710.059 135.313 707.714 132.874C705.416 130.388 701.828 129.146 696.95 129.146C692.964 129.146 689.141 129.732 685.483 130.904C681.825 132.077 678.308 133.46 674.931 135.055L669.584 123.236C673.805 121.032 678.425 119.367 683.443 118.241C688.461 117.069 693.198 116.483 697.654 116.483C707.55 116.483 715.007 118.64 720.025 122.955C725.09 127.27 727.622 134.047 727.622 143.286V195.696H715.804ZM691.182 184.44C697.185 184.44 701.992 182.775 705.603 179.445C709.261 176.069 711.09 171.355 711.09 165.305V158.552L701.101 158.974C693.316 159.255 687.641 160.568 684.076 162.913C680.559 165.211 678.8 168.752 678.8 173.536C678.8 177.007 679.832 179.703 681.895 181.626C683.959 183.502 687.054 184.44 691.182 184.44Z" fill="white"/>
<path d="M790.163 116.483C793.493 116.483 796.237 116.717 798.394 117.186L796.776 132.593C794.431 132.03 791.992 131.749 789.46 131.749C782.847 131.749 777.477 133.906 773.349 138.221C769.269 142.535 767.229 148.14 767.229 155.034V195.696H750.697V117.89H763.641L765.822 131.608H766.666C769.246 126.965 772.599 123.283 776.726 120.563C780.9 117.843 785.379 116.483 790.163 116.483Z" fill="white"/>
<path d="M844.262 197.103C832.49 197.103 823.532 193.679 817.388 186.832C811.291 179.938 808.243 170.065 808.243 157.215C808.243 144.13 811.432 134.07 817.81 127.035C824.235 120 833.498 116.483 845.598 116.483C853.806 116.483 861.192 118.007 867.758 121.055L862.763 134.351C855.775 131.631 850.007 130.271 845.458 130.271C831.997 130.271 825.267 139.206 825.267 157.074C825.267 165.798 826.932 172.364 830.262 176.772C833.639 181.134 838.563 183.315 845.035 183.315C852.399 183.315 859.363 181.485 865.929 177.827V192.249C862.974 193.984 859.809 195.227 856.432 195.977C853.102 196.728 849.045 197.103 844.262 197.103Z" fill="white"/>
<path d="M952.67 195.696H936.067V147.859C936.067 141.855 934.848 137.376 932.409 134.422C930.017 131.467 926.195 129.99 920.942 129.99C914.001 129.99 908.889 132.077 905.606 136.251C902.37 140.378 900.752 147.319 900.752 157.074V195.696H884.22V86.2326H900.752V114.021C900.752 118.476 900.471 123.236 899.908 128.301H900.963C903.214 124.549 906.333 121.642 910.32 119.578C914.353 117.515 919.043 116.483 924.389 116.483C943.243 116.483 952.67 125.98 952.67 144.974V195.696Z" fill="white"/>
<path fill-rule="evenodd" clip-rule="evenodd" d="M1023.24 105.016C1022.36 106.416 1021.4 107.919 1020.67 109.515C1020.03 110.9 1020.93 112.056 1021.7 112.486C1022.11 112.719 1022.68 112.877 1023.29 112.752C1023.96 112.614 1024.51 112.167 1024.79 111.526C1025.52 109.933 1026.49 108.418 1027.53 106.819C1027.68 106.577 1027.84 106.334 1028 106.089L1028 106.08L1028 106.078C1028.11 105.905 1028.23 105.725 1028.35 105.534L1028.36 105.523C1028.69 105.004 1029.07 104.413 1029.4 103.807C1029.86 102.965 1030.28 101.979 1030.41 100.881L1030.41 100.872L1030.41 100.869C1030.48 100.174 1030.24 99.5139 1029.72 99.0596C1029.26 98.6486 1028.69 98.5042 1028.21 98.4987C1027.35 98.4886 1025.99 99.0186 1025.83 100.518C1025.79 100.913 1025.56 101.443 1025.13 102.139C1024.92 102.472 1024.69 102.805 1024.46 103.152L1024.42 103.212C1024.2 103.528 1023.97 103.866 1023.77 104.188C1023.6 104.454 1023.43 104.722 1023.26 104.993L1023.24 105.016Z" fill="white"/>
<path fill-rule="evenodd" clip-rule="evenodd" d="M1014.06 100.988C1015.55 99.2396 1017.03 97.5113 1018.55 95.8398C1019.05 95.3081 1019.23 94.6712 1019.16 94.0778C1019.1 93.5078 1018.82 93.0014 1018.48 92.6507C1018.13 92.2973 1017.61 91.9967 1016.99 91.9539C1016.31 91.9078 1015.67 92.1756 1015.21 92.6898C1013.63 94.403 1012.12 96.1723 1010.63 97.9203L1010.42 98.1619C1009 99.8361 1007.59 101.488 1006.14 103.085L1006.13 103.091L1006.13 103.093C1005.13 104.208 1005.54 105.584 1006.22 106.281C1006.58 106.642 1007.1 106.948 1007.75 106.977C1008.43 107.008 1009.06 106.714 1009.5 106.21C1011.06 104.501 1012.56 102.739 1014.05 100.997L1014.06 100.988Z" fill="white"/>
<path d="M1005.36 83.9345C1004.68 83.2099 1003.34 82.8118 1002.22 83.7365L1002.2 83.7594L994.426 90.7938C993.769 91.5744 992.026 93.1936 990.881 93.9013L990.316 94.454C989.846 94.9143 989.604 95.5159 989.628 96.1391C989.651 96.7287 989.908 97.2423 990.257 97.61C990.604 97.976 991.114 98.2718 991.727 98.3152C992.376 98.3611 992.991 98.1125 993.451 97.6463C997.203 93.9452 1001.11 90.4782 1005.16 87.1044C1005.67 86.6864 1005.97 86.0942 1005.97 85.4386C1005.97 84.8242 1005.7 84.2996 1005.36 83.9345Z" fill="white"/>
<path fill-rule="evenodd" clip-rule="evenodd" d="M1085.55 120.535C1085.13 122.139 1084.68 123.861 1084.47 125.603C1084.28 127.118 1085.49 127.945 1086.35 128.122C1086.82 128.217 1087.41 128.195 1087.95 127.89C1088.55 127.555 1088.93 126.963 1089.01 126.266C1089.22 124.527 1089.68 122.787 1090.18 120.95C1090.26 120.672 1090.33 120.392 1090.41 120.111L1090.41 120.101L1090.41 120.098C1090.46 119.901 1090.52 119.694 1090.58 119.475L1090.58 119.462C1090.74 118.866 1090.92 118.187 1091.05 117.51C1091.23 116.569 1091.33 115.502 1091.12 114.417L1091.12 114.408L1091.12 114.405C1090.98 113.72 1090.54 113.166 1089.91 112.889C1089.35 112.639 1088.76 112.675 1088.3 112.814C1087.48 113.067 1086.35 113.986 1086.65 115.463C1086.72 115.853 1086.67 116.429 1086.47 117.222C1086.38 117.602 1086.26 117.988 1086.14 118.391L1086.12 118.46C1086.01 118.827 1085.89 119.219 1085.8 119.587C1085.72 119.891 1085.64 120.198 1085.56 120.509L1085.55 120.535Z" fill="white"/>
<path fill-rule="evenodd" clip-rule="evenodd" d="M1075.57 119.492C1076.47 117.372 1077.35 115.276 1078.29 113.221C1078.61 112.561 1078.57 111.902 1078.33 111.356C1078.1 110.832 1077.68 110.434 1077.25 110.205C1076.8 109.975 1076.22 109.846 1075.62 109.995C1074.96 110.156 1074.43 110.606 1074.14 111.237C1073.16 113.349 1072.26 115.495 1071.37 117.613L1071.25 117.906C1070.4 119.934 1069.57 121.936 1068.67 123.899L1068.66 123.906L1068.66 123.909C1068.05 125.275 1068.86 126.461 1069.72 126.917C1070.17 127.154 1070.76 127.284 1071.38 127.117C1072.05 126.938 1072.55 126.468 1072.82 125.852C1073.78 123.751 1074.68 121.615 1075.57 119.503L1075.57 119.492Z" fill="white"/>
<path d="M1062.1 105.894C1061.23 105.411 1059.84 105.44 1059.05 106.66L1059.03 106.691L1053.77 115.755C1053.38 116.699 1052.22 118.772 1051.34 119.794L1050.97 120.493C1050.66 121.074 1050.62 121.721 1050.83 122.307C1051.03 122.862 1051.43 123.273 1051.88 123.517C1052.32 123.76 1052.89 123.887 1053.49 123.741C1054.12 123.588 1054.63 123.164 1054.93 122.58C1057.38 117.913 1060.05 113.42 1062.88 108.974C1063.23 108.422 1063.34 107.766 1063.14 107.142C1062.95 106.556 1062.54 106.138 1062.1 105.894Z" fill="white"/>
<path fill-rule="evenodd" clip-rule="evenodd" d="M1127.57 127.678C1127.85 129.312 1128.16 131.067 1128.21 132.82C1128.27 134.346 1126.99 135.065 1126.12 135.166C1125.65 135.221 1125.06 135.148 1124.55 134.796C1123.98 134.411 1123.65 133.788 1123.64 133.087C1123.58 131.336 1123.26 129.562 1122.93 127.689C1122.88 127.405 1122.83 127.12 1122.78 126.833L1122.77 126.823L1122.77 126.82C1122.74 126.619 1122.7 126.408 1122.66 126.185L1122.66 126.172C1122.55 125.564 1122.43 124.872 1122.36 124.186C1122.27 123.233 1122.26 122.161 1122.56 121.099L1122.57 121.09L1122.57 121.087C1122.77 120.417 1123.25 119.903 1123.9 119.682C1124.48 119.482 1125.06 119.569 1125.5 119.747C1126.3 120.07 1127.35 121.084 1126.92 122.53C1126.81 122.912 1126.82 123.49 1126.95 124.297C1127.01 124.684 1127.09 125.079 1127.18 125.491L1127.19 125.561C1127.27 125.937 1127.35 126.337 1127.41 126.711C1127.46 127.021 1127.52 127.334 1127.57 127.651L1127.57 127.678Z" fill="white"/>
<path fill-rule="evenodd" clip-rule="evenodd" d="M1137.61 127.504C1136.9 125.314 1136.21 123.15 1135.45 121.022C1135.19 120.336 1135.28 119.682 1135.57 119.16C1135.84 118.658 1136.29 118.297 1136.75 118.107C1137.21 117.916 1137.8 117.838 1138.39 118.039C1139.03 118.257 1139.52 118.751 1139.75 119.405C1140.54 121.594 1141.26 123.81 1141.95 125.997L1142.05 126.299C1142.72 128.394 1143.38 130.46 1144.1 132.494L1144.11 132.502L1144.11 132.505C1144.6 133.918 1143.69 135.03 1142.79 135.41C1142.33 135.606 1141.72 135.685 1141.12 135.464C1140.47 135.229 1140.01 134.717 1139.8 134.079C1139.02 131.903 1138.31 129.696 1137.61 127.515L1137.61 127.504Z" fill="white"/>
<path d="M1152.21 115.127C1153.12 114.72 1154.51 114.87 1155.18 116.155L1155.2 116.187L1159.65 125.674C1159.96 126.648 1160.94 128.814 1161.72 129.909L1162.03 130.637C1162.29 131.243 1162.28 131.891 1162.01 132.457C1161.77 132.992 1161.33 133.366 1160.87 133.571C1160.41 133.775 1159.82 133.851 1159.24 133.654C1158.62 133.446 1158.15 132.98 1157.91 132.372C1155.87 127.51 1153.6 122.802 1151.17 118.127C1150.87 117.547 1150.81 116.883 1151.07 116.279C1151.31 115.712 1151.75 115.331 1152.21 115.127Z" fill="white"/>
<path fill-rule="evenodd" clip-rule="evenodd" d="M1059.78 41.5146C1062.35 39.7498 1064.48 37.0546 1066.03 34.0945C1067.58 31.1313 1068.57 27.8488 1068.82 24.8583C1068.96 23.2817 1068.75 21.9684 1068.22 20.9289C1067.68 19.8761 1066.84 19.1548 1065.82 18.7429C1063.84 17.9403 1061.27 18.3393 1058.91 19.4019C1058.5 19.5657 1058.26 19.8525 1058.13 20.1316C1055.47 21.7549 1053.09 24.38 1051.3 27.283C1049.46 30.2758 1048.21 33.6389 1047.96 36.6336C1047.81 38.3273 1048.19 39.724 1048.96 40.7962C1049.74 41.8642 1050.87 42.5401 1052.11 42.8869C1054.56 43.5722 1057.58 43.0137 1059.78 41.5146ZM1063.67 21.2522C1063.07 21.2581 1062.39 21.4378 1061.69 21.6957C1061.53 21.9083 1061.32 22.064 1061.12 22.1693L1061.09 22.1845L1061.06 22.1974C1058.99 23.0836 1057.03 24.9036 1055.38 27.1079C1053.75 29.3026 1052.48 31.8085 1051.79 33.9717C1051.41 35.1621 1051.1 36.5835 1051.24 37.764C1051.31 38.3434 1051.49 38.8202 1051.77 39.1833C1052.05 39.5355 1052.47 39.8338 1053.14 40.0001L1053.14 40.0007C1055.19 40.5125 1057 39.8399 1058.65 38.3417L1058.65 38.3381C1061.91 35.4126 1064.44 30.9939 1065.3 26.6709L1065.3 26.663C1065.46 25.886 1065.65 24.9462 1065.68 24.0439C1065.7 23.1214 1065.55 22.3913 1065.19 21.9267L1065.18 21.9195C1064.8 21.4306 1064.31 21.2459 1063.67 21.2522Z" fill="white"/>
<path fill-rule="evenodd" clip-rule="evenodd" d="M1082.27 50.1949C1085.14 48.8149 1087.25 45.9287 1088.68 42.8479C1090.11 39.7455 1090.92 36.3049 1091.08 33.627C1091.23 31.2437 1090.73 28.0213 1089.34 25.88C1088.64 24.7973 1087.64 23.8943 1086.28 23.6289C1084.91 23.3622 1083.41 23.7826 1081.8 24.8882L1081.77 24.907L1081.75 24.9278C1076.63 29.0809 1072.58 35.8425 1071.58 42.1361L1071.58 42.1394C1071.13 45.0126 1072.24 47.7397 1074.26 49.4025C1076.31 51.0893 1079.26 51.641 1082.27 50.1949ZM1085.34 26.7013C1084.99 26.7422 1084.51 26.917 1083.86 27.3566C1080.48 30.1174 1077.72 34.2586 1076.13 38.2334C1075.7 39.2965 1075.26 40.4358 1075 41.5803C1074.73 42.7255 1074.66 43.8249 1074.92 44.8173L1074.92 44.8218C1075.18 45.8759 1075.97 46.8935 1076.98 47.4916C1077.98 48.0791 1079.11 48.2268 1080.18 47.7072L1080.19 47.7045C1082.08 46.797 1083.56 45.12 1084.71 43.1007C1085.85 41.0887 1086.64 38.8065 1087.18 36.7876C1087.53 35.4762 1087.8 32.0367 1087.29 29.4488C1087.16 28.8104 1086.99 28.2511 1086.78 27.8019C1086.57 27.3475 1086.33 27.0525 1086.1 26.885C1085.89 26.7345 1085.65 26.6634 1085.34 26.7013Z" fill="white"/>
<path fill-rule="evenodd" clip-rule="evenodd" d="M1108.86 53.0937C1111.24 51.0574 1112.48 47.7307 1113.01 44.3783C1113.55 41.0024 1113.4 37.4471 1112.84 34.7912C1112.34 32.4271 1111 29.3966 1109.09 27.6376C1108.13 26.7483 1106.94 26.1054 1105.56 26.1718C1104.19 26.2386 1102.86 27.0101 1101.62 28.4761L1101.6 28.501L1101.58 28.5276C1097.81 33.8125 1095.76 41.3902 1096.48 47.7814L1096.49 47.7848C1096.83 50.6993 1098.62 53.0979 1101 54.2388C1103.41 55.3961 1106.37 55.2294 1108.86 53.0937ZM1105.49 29.4001C1105.17 29.5225 1104.76 29.8093 1104.26 30.3932C1101.76 33.9034 1100.24 38.6105 1099.79 42.8765C1099.66 44.0183 1099.55 45.2371 1099.6 46.4187C1099.66 47.601 1099.88 48.6931 1100.39 49.6014L1100.4 49.6055C1100.93 50.5719 1101.96 51.3778 1103.09 51.7196C1104.19 52.0555 1105.32 51.9273 1106.2 51.1641L1106.2 51.16C1107.77 49.8185 1108.73 47.8259 1109.29 45.577C1109.84 43.3363 1109.98 40.9184 1109.96 38.8142C1109.94 37.4505 1109.28 34.0234 1108.09 31.617C1107.8 31.0234 1107.49 30.5173 1107.17 30.1291C1106.84 29.7365 1106.53 29.5049 1106.27 29.397C1106.03 29.2999 1105.78 29.2866 1105.49 29.4001Z" fill="white"/>
<path fill-rule="evenodd" clip-rule="evenodd" d="M1121.63 41.3422C1120.96 37.6283 1120.96 33.6822 1122.46 30.7423C1122.93 29.3344 1123.63 28.3638 1124.57 27.8596C1125.52 27.3453 1126.57 27.3987 1127.52 27.7161C1129.38 28.3367 1131.21 30.0578 1132.36 31.5785C1134.03 33.8001 1135.81 36.7311 1136.96 39.8649C1138.11 42.9889 1138.66 46.4023 1137.76 49.5349C1136.86 52.647 1134.54 54.5264 1131.99 54.8869C1129.44 55.2478 1126.74 54.0727 1125.13 51.2816C1123.69 48.7958 1122.3 45.1053 1121.63 41.3422ZM1130.57 51.8935C1132.6 51.9709 1134.52 50.4785 1134.84 48.3172C1135.48 44.015 1133.6 39.2476 1131.27 35.6112L1131.26 35.6068C1130.66 34.6488 1129.31 32.7074 1127.95 31.5556C1127.25 30.9599 1126.7 30.7104 1126.34 30.7172C1126.2 30.72 1126.07 30.7644 1125.93 30.8883C1125.78 31.0252 1125.59 31.2851 1125.42 31.7611L1125.39 31.8336L1125.38 31.8579C1125.37 31.8756 1125.36 31.9021 1125.35 31.93C1125.33 31.9651 1125.32 32.0083 1125.29 32.0557C1124.38 33.8309 1124.24 36.3945 1124.54 39.1064C1124.84 41.7959 1125.57 44.4941 1126.28 46.4256C1126.7 47.5247 1127.24 48.9147 1128 50.0383C1128.76 51.1799 1129.6 51.8617 1130.57 51.8934L1130.57 51.8935Z" fill="white"/>
<path fill-rule="evenodd" clip-rule="evenodd" d="M1012.04 40.5977C1011.13 40.4763 1010.14 40.6488 1009.09 41.1096L1008.85 41.1997L1008.78 41.2369C1006.7 42.4694 1005.26 44.6359 1004.41 46.9521C1003.55 49.2734 1003.26 51.8436 1003.56 54.0027C1003.88 56.3392 1005.41 57.9138 1007.32 58.553C1009.2 59.1854 1011.43 58.9038 1013.19 57.6028C1014.53 56.6113 1015.44 54.833 1015.96 52.9264C1016.48 50.9931 1016.66 48.7902 1016.43 46.7974C1016.21 44.8312 1015.58 42.9328 1014.36 41.7472C1013.74 41.1392 1012.97 40.721 1012.04 40.5977ZM1007.14 54.7109C1006.76 54.0834 1006.59 53.2168 1006.57 52.2966C1006.55 50.9548 1006.87 49.2096 1007.51 47.617C1008.15 46.0216 1009.08 44.7024 1010.19 44.0373C1010.78 43.7658 1011.19 43.746 1011.48 43.8116C1011.77 43.8785 1012.05 44.0596 1012.31 44.3843C1012.86 45.068 1013.2 46.213 1013.37 47.3523L1013.37 47.3585C1013.75 49.8286 1013.24 52.6334 1011.72 54.6048L1011.72 54.6121C1011.07 55.4696 1010.07 55.8447 1008.94 55.7547L1008.93 55.7541L1008.92 55.7537C1008.03 55.6979 1007.49 55.2958 1007.14 54.7109Z" fill="white"/>
<path fill-rule="evenodd" clip-rule="evenodd" d="M1021.93 53.4734L1021.92 53.4815L1021.91 53.4898C1021.68 53.6826 1021.53 53.9084 1021.44 54.1662C1018.5 57.0238 1017.31 61.7163 1018.32 65.7437L1018.32 65.7465C1018.99 68.4135 1020.85 70.0423 1023.04 70.6392C1025.2 71.2285 1027.67 70.8109 1029.66 69.4809L1029.66 69.4781C1031.47 68.2534 1032.28 66.2192 1032.44 64.0909C1032.61 61.9611 1032.14 59.6357 1031.26 57.6325C1030.39 55.6423 1029.07 53.8625 1027.45 52.934C1026.63 52.4631 1025.72 52.2046 1024.75 52.2749C1023.79 52.3454 1022.83 52.7415 1021.93 53.4734ZM1021.74 59.2837C1022.37 57.7186 1023.39 56.4 1024.65 55.6502C1024.74 55.5977 1024.82 55.5402 1024.9 55.4752C1025.47 55.3636 1026.09 55.5968 1026.74 56.2689C1027.47 57.0138 1028.11 58.1953 1028.56 59.5687C1029 60.9346 1029.22 62.4213 1029.14 63.7334C1029.06 65.0634 1028.68 66.0992 1028.06 66.7068C1026.8 67.9333 1025.26 68.096 1023.94 67.5667C1022.6 67.028 1021.49 65.7681 1021.19 64.1335L1021.19 64.127C1020.9 62.594 1021.11 60.8494 1021.74 59.2837Z" fill="white"/>
<path fill-rule="evenodd" clip-rule="evenodd" d="M1042.42 64.1243C1041.46 64.2048 1040.49 64.5927 1039.55 65.3062C1038.14 66.2447 1037.27 67.8973 1036.76 69.5471C1036.25 71.2236 1036.08 73.0308 1036.19 74.4205C1036.36 76.6836 1037.39 78.2995 1039.01 79.1457C1040.6 79.9711 1042.62 79.992 1044.68 79.3951C1047.02 78.7271 1048.36 77.0931 1048.92 75.1635C1049.48 73.2667 1049.27 71.093 1048.58 69.2062C1047.9 67.3277 1046.69 65.6133 1045.1 64.7279C1044.29 64.2792 1043.38 64.043 1042.42 64.1243ZM1042.9 76.8495C1041.34 77.1984 1040.46 76.7969 1039.95 76.174C1039.39 75.4855 1039.13 74.3441 1039.23 72.9657C1039.3 72.1067 1039.49 70.9802 1039.85 69.9506C1040.23 68.9004 1040.74 68.0663 1041.38 67.6394L1041.4 67.626L1041.42 67.6113C1041.88 67.264 1042.3 67.1433 1042.67 67.1478C1043.05 67.1525 1043.45 67.2889 1043.85 67.5695C1044.68 68.142 1045.43 69.2521 1045.85 70.5806C1046.26 71.9028 1046.3 73.3212 1045.86 74.4666C1045.44 75.571 1044.54 76.4856 1042.9 76.8495Z" fill="white"/>
<path fill-rule="evenodd" clip-rule="evenodd" d="M1085.59 75.9012C1084.63 75.9885 1083.67 76.4087 1082.73 77.1816C1081.32 78.1983 1080.44 79.9886 1079.93 81.776C1079.42 83.5922 1079.25 85.5499 1079.36 87.0555C1079.53 89.5072 1080.56 91.2578 1082.19 92.1745C1083.77 93.0687 1085.8 93.0912 1087.85 92.4447C1090.19 91.721 1091.54 89.9508 1092.1 87.8604C1092.65 85.8055 1092.44 83.4507 1091.76 81.4067C1091.07 79.3716 1089.86 77.5143 1088.27 76.5552C1087.46 76.0691 1086.56 75.8132 1085.59 75.9012ZM1086.07 89.6865C1084.51 90.0645 1083.63 89.6299 1083.13 88.9551C1082.57 88.2092 1082.3 86.9727 1082.41 85.4795C1082.47 84.5488 1082.66 83.3285 1083.03 82.2131C1083.4 81.0753 1083.92 80.1717 1084.56 79.7093L1084.58 79.6947L1084.6 79.6788C1085.05 79.3026 1085.47 79.1718 1085.84 79.1767C1086.22 79.1818 1086.62 79.3296 1087.02 79.6335C1087.85 80.2537 1088.6 81.4563 1089.02 82.8956C1089.43 84.3279 1089.48 85.8646 1089.04 87.1054C1088.61 88.3019 1087.72 89.2923 1086.07 89.6865Z" fill="white"/>
<path fill-rule="evenodd" clip-rule="evenodd" d="M1131.8 81.8182C1133.33 83.2624 1134.55 85.3391 1135.17 87.5387C1135.78 89.736 1135.8 92.1506 1134.76 94.2183C1133.73 96.278 1131.43 98.1427 1128.97 98.9727C1126.5 99.8091 1123.61 99.6619 1121.74 97.249L1121.74 97.2451C1120.35 95.4348 1119.84 93.1658 1119.89 90.9209C1119.94 88.7218 1120.52 86.4847 1121.4 84.5838C1121.42 84.4744 1121.45 84.3258 1121.52 84.1753L1121.52 84.1698L1121.52 84.1642C1122.52 82.0589 1124.07 80.5129 1125.96 79.9947C1127.9 79.4654 1129.96 80.0681 1131.8 81.8182ZM1131.78 92.615C1131.27 94.0058 1129.71 95.2996 1127.98 95.7936C1126.28 96.2801 1124.75 95.9231 1123.97 94.5079C1123.27 93.2354 1123.11 91.5319 1123.35 89.7571C1123.59 88.0059 1124.22 86.2883 1124.99 85.0304C1125.11 84.8637 1125.17 84.6832 1125.2 84.5456C1125.87 83.5959 1126.59 83.2389 1127.26 83.2321C1128 83.2246 1128.92 83.6333 1129.91 84.727C1131.79 86.8296 1132.7 90.03 1131.78 92.615Z" fill="white"/>
<path fill-rule="evenodd" clip-rule="evenodd" d="M1143.95 81.3437L1143.94 81.3538L1143.93 81.3643C1143.72 81.5587 1143.58 81.7804 1143.5 82.0214C1140.94 84.7198 1139.86 89.1711 1141.87 92.4751L1141.87 92.4792C1143.05 94.3857 1145.33 95.3504 1147.56 95.4912C1149.8 95.6318 1152.2 94.9645 1153.68 93.3532C1154.94 91.9873 1155.33 90.1666 1155.19 88.3789C1155.04 86.5885 1154.35 84.7533 1153.31 83.2499C1152.28 81.755 1150.86 80.5109 1149.2 80.0253C1147.49 79.523 1145.65 79.8703 1143.95 81.3437ZM1147.01 83.0067C1147.14 82.9354 1147.23 82.8588 1147.31 82.7891C1147.95 82.621 1148.55 82.7552 1149.14 83.1381C1149.8 83.573 1150.43 84.3241 1150.92 85.2694C1151.42 86.207 1151.76 87.2835 1151.9 88.3076C1152.05 89.3428 1151.98 90.2586 1151.71 90.9079C1151.26 92.0322 1150.03 92.5952 1148.49 92.5925C1146.94 92.5898 1145.39 92.0027 1144.65 91.2106C1143.7 90.1666 1143.57 88.53 1144.12 86.8392C1144.66 85.1519 1145.8 83.6635 1146.99 83.0185L1147 83.0127L1147.01 83.0067Z" fill="white"/>
<path fill-rule="evenodd" clip-rule="evenodd" d="M1169.31 72.3306C1167.6 71.7643 1165.62 71.8786 1163.75 72.4623C1163.63 72.4862 1163.46 72.5267 1163.26 72.6278C1163.04 72.7135 1162.88 72.8301 1162.8 72.8867C1159.65 74.8958 1158.32 79.1104 1159.66 82.4139C1161.22 86.2443 1166.37 87.4364 1169.94 85.2988C1173.14 83.3723 1174.2 79.3877 1173.13 76.2138C1172.46 74.1903 1171.07 72.9127 1169.31 72.3306ZM1165.51 83.1919C1164.35 83.0277 1163.35 82.4187 1162.88 81.472C1162.42 80.5455 1162.37 79.2981 1162.72 78.1111C1163.07 76.9482 1163.76 75.9635 1164.67 75.4405C1165.9 75.0189 1167.02 74.9176 1167.9 75.1496C1168.75 75.3736 1169.48 75.9319 1169.93 77.0597L1169.94 77.0675L1169.94 77.0752C1170.65 78.7621 1170.09 81.0356 1168.7 82.3043C1167.87 83.0554 1166.66 83.3565 1165.51 83.1919Z" fill="white"/>
<path fill-rule="evenodd" clip-rule="evenodd" d="M1065.02 72.3306C1063.47 71.7643 1061.67 71.8786 1059.97 72.4623C1059.86 72.4862 1059.71 72.5267 1059.53 72.6278C1059.33 72.7135 1059.18 72.8301 1059.11 72.8867C1056.25 74.8958 1055.04 79.1104 1056.25 82.4139C1057.67 86.2443 1062.36 87.4364 1065.6 85.2988C1068.51 83.3723 1069.47 79.3877 1068.5 76.2138C1067.89 74.1903 1066.62 72.9127 1065.02 72.3306ZM1061.57 83.1919C1060.52 83.0277 1059.61 82.4187 1059.18 81.472C1058.77 80.5455 1058.72 79.2981 1059.04 78.1111C1059.35 76.9482 1059.98 75.9635 1060.8 75.4405C1061.92 75.0189 1062.94 74.9176 1063.74 75.1496C1064.52 75.3736 1065.18 75.9319 1065.59 77.0597L1065.59 77.0675L1065.6 77.0752C1066.25 78.7621 1065.74 81.0356 1064.47 82.3043C1063.72 83.0554 1062.62 83.3565 1061.57 83.1919Z" fill="white"/>
<path fill-rule="evenodd" clip-rule="evenodd" d="M1110.82 81.4875C1109.26 80.9212 1107.46 81.0355 1105.76 81.6192C1105.65 81.6431 1105.5 81.6836 1105.32 81.7847C1105.12 81.8704 1104.97 81.987 1104.9 82.0436C1102.04 84.0527 1100.83 88.2673 1102.04 91.5708C1103.46 95.4012 1108.15 96.5933 1111.39 94.4557C1114.3 92.5292 1115.27 88.5446 1114.29 85.3707C1113.68 83.3472 1112.41 82.0696 1110.82 81.4875ZM1107.36 92.3488C1106.31 92.1846 1105.4 91.5756 1104.97 90.6289C1104.56 89.7024 1104.51 88.455 1104.83 87.268C1105.14 86.1051 1105.77 85.1204 1106.6 84.5974C1107.72 84.1758 1108.73 84.0745 1109.53 84.3065C1110.31 84.5305 1110.97 85.0888 1111.38 86.2166L1111.39 86.2244L1111.39 86.2321C1112.04 87.919 1111.53 90.1925 1110.26 91.4612C1109.51 92.2123 1108.41 92.5134 1107.36 92.3488Z" fill="white"/>
<path fill-rule="evenodd" clip-rule="evenodd" d="M1041.12 31.2782L1041.13 31.2844C1041.39 31.3878 1041.58 31.534 1041.72 31.6831C1041.74 31.6863 1041.76 31.6897 1041.78 31.6933C1041.82 31.699 1041.86 31.7051 1041.9 31.712C1042.04 31.7339 1042.2 31.7614 1042.35 31.7956C1042.5 31.8274 1042.69 31.876 1042.86 31.9552C1042.94 31.9936 1043.07 32.064 1043.19 32.1858C1043.32 32.3183 1043.48 32.5618 1043.45 32.8929C1043.42 33.1945 1043.25 33.3934 1043.15 33.4913C1043.04 33.5949 1042.92 33.6688 1042.82 33.722C1042.43 33.9224 1041.75 34.1241 1040.69 34.3586C1040.4 34.4216 1040.15 34.3781 1039.92 34.2973C1032.21 31.5675 1023.43 31.1633 1015.53 33.4029C1011.1 34.6628 1005.88 37.2423 1002.18 40.833C998.483 44.4116 996.374 48.8948 997.839 54.077C999.083 58.5159 1001.95 62.3716 1005.54 65.6811C1009.13 68.989 1013.41 71.7165 1017.4 73.9077C1027.75 79.5925 1039.07 83.4031 1050.31 87.1861C1050.85 87.3692 1051.4 87.5522 1051.94 87.7353C1064.64 92.0168 1077.54 95.8328 1090.67 98.6113C1113.26 103.378 1139.02 107.533 1161.14 99.7892C1163.92 98.8022 1167.12 97.6639 1170.09 96.1861C1173.06 94.7051 1175.74 92.9168 1177.52 90.669L1177.52 90.6652C1181.16 86.1154 1181.92 79.2995 1179.01 74.0901L1179 74.0864C1176.22 69.0474 1171.67 64.944 1166.44 61.599C1161.22 58.2563 1155.37 55.6992 1150.04 53.7345L1149.96 53.7048L1149.32 53.2998L1149.33 52.8461C1149.34 52.3003 1149.31 52.0799 1149.3 51.9848L1149.3 51.9763L1149.3 51.97C1149.29 51.9455 1149.29 51.8894 1149.28 51.8354C1149.28 51.7662 1149.28 51.6376 1149.32 51.4884C1149.37 51.3361 1149.45 51.2313 1149.5 51.1734C1149.54 51.13 1149.58 51.0888 1149.6 51.0729L1149.6 51.0692C1149.98 50.7008 1150.61 50.4978 1151.25 50.7527C1158.87 53.5588 1166.2 57.2812 1172.62 62.3536L1172.62 62.3569C1177 65.8649 1182.04 70.3877 1183.45 76.4681L1183.45 76.4776C1184.71 82.2144 1184.02 89.5021 1179.08 93.7802C1173.55 98.5767 1166.69 101.527 1159.86 103.609C1138.52 110.147 1114.52 106.821 1093.32 102.458C1085.55 101.019 1077.85 98.9498 1070.29 96.8328C1069.95 96.7393 1069.79 96.7076 1069.69 96.6861L1069.68 96.684C1069.57 96.6616 1069.45 96.6383 1069.28 96.5749C1069.15 96.5253 1068.99 96.4511 1068.75 96.3382C1064.74 95.1817 1060.77 93.9655 1056.81 92.6861C1056.21 92.4914 1055.6 92.2964 1055 92.1016L1054.95 92.0846C1044 88.5373 1032.78 84.9039 1022.31 79.951C1016.15 77.0297 1007.44 72.194 1001.38 65.9626C998.352 62.8434 995.942 59.3312 994.879 55.4896C993.809 51.6225 994.12 47.4753 996.444 43.159C1000.51 35.6157 1008.19 31.4078 1016.53 29.7008C1024.88 27.9937 1033.99 28.7587 1041.1 31.2727L1041.12 31.2782Z" fill="white"/>
<path fill-rule="evenodd" clip-rule="evenodd" d="M1147.31 34.1277C1142.94 19.6425 1131.12 9.88999 1117.2 4.64729C1103.29 -0.593943 1087.18 -1.37351 1074.03 2.16492C1061.71 5.48485 1053.1 13.8437 1045.63 23.5672C1043.67 26.1304 1041.81 28.8047 1040.14 31.594C1040.11 31.6243 1040.09 31.6517 1040.07 31.6703C1040.02 31.7414 1039.95 31.8355 1039.88 31.9449C1039.73 32.1685 1039.52 32.5051 1039.26 32.9647C1038.72 33.8859 1037.95 35.3221 1036.95 37.3782L1036.89 37.4962C1036.39 38.5345 1035.73 39.8873 1035.3 41.2889C1034.87 42.6871 1034.64 44.2569 1035.11 45.6796L1035.12 45.6944L1035.12 45.709C1035.14 45.7438 1035.14 45.761 1035.15 45.7785C1035.15 45.7935 1035.16 45.8099 1035.16 45.8318L1035.18 45.9279L1035.23 46.0159C1038.85 53.2055 1044.59 57.528 1051.72 60.9218C1059.67 64.6809 1068.26 67.0508 1076.69 69.1711C1098.7 74.7929 1123.96 78.1426 1145.58 68.3291C1146.39 67.978 1147.17 67.5616 1147.89 67.1533L1147.9 67.15C1148.39 66.8683 1148.7 66.4201 1148.9 65.9635C1149.1 65.507 1149.22 64.9872 1149.29 64.4737C1149.43 63.4621 1149.42 62.3194 1149.4 61.4308L1149.4 61.4014C1149.39 60.8849 1149.39 60.4742 1149.4 60.1796C1149.57 58.0754 1149.67 55.9624 1149.7 53.8391L1149.98 54.0215L1149.88 52.4537C1149.86 52.136 1149.84 51.8996 1149.81 51.7666C1149.81 51.7448 1149.8 51.7137 1149.79 51.6789C1149.78 51.6584 1149.77 51.6021 1149.73 51.5345L1149.73 51.1709C1149.65 45.4241 1148.98 39.6887 1147.31 34.1277ZM1045.35 29.4116C1054.61 15.7354 1067.24 7.28221 1081.15 4.30586C1095.06 1.32889 1110.3 3.81901 1124.82 12.136C1133.72 17.2125 1140.52 24.4391 1143.92 34.0748C1147.06 42.9237 1146.84 52.7511 1146.06 62.1115C1146 62.7947 1146.06 63.3329 1146.11 63.7273L1146.11 63.7377C1146.13 63.9475 1146.15 64.0837 1146.15 64.1993C1146.15 64.3067 1146.14 64.3528 1146.13 64.3731C1146.13 64.385 1146.09 64.5034 1145.69 64.7158L1145.68 64.7183C1144.43 65.3913 1143.13 65.9405 1141.77 66.4642L1141.76 66.4663C1136.38 68.5826 1130.63 69.7885 1124.87 70.5555C1103.26 73.381 1080.39 68.167 1060 60.8262C1050.85 57.5238 1042.54 53.2789 1038.19 44.6608C1037.99 44.1403 1038.04 43.4128 1038.3 42.516C1038.56 41.6239 1038.98 40.7119 1039.36 39.9005L1039.37 39.8854C1039.47 39.6703 1039.56 39.4608 1039.65 39.2659L1039.66 39.2567C1041.15 35.8129 1043.19 32.5971 1045.35 29.4116Z" fill="white"/>
</svg>
